<?xml version="1.0" encoding="UTF-8" standalone="no"?>
<!-- Created with Inkscape (http://www.inkscape.org/) -->

<svg
   width="36"
   height="36"
   viewBox="0 0 9.5249998 9.5249999"
   version="1.1"
   id="svg1"
   inkscape:version="1.3 (0e150ed6c4, 2023-07-21)"
   sodipodi:docname="gear.svg"
   inkscape:export-filename="background.png"
   inkscape:export-xdpi="96"
   inkscape:export-ydpi="96"
   xmlns:inkscape="http://www.inkscape.org/namespaces/inkscape"
   xmlns:sodipodi="http://sodipodi.sourceforge.net/DTD/sodipodi-0.dtd"
   xmlns="http://www.w3.org/2000/svg"
   xmlns:svg="http://www.w3.org/2000/svg">
  <sodipodi:namedview
     id="namedview1"
     pagecolor="#ffffff"
     bordercolor="#666666"
     borderopacity="1.0"
     inkscape:showpageshadow="2"
     inkscape:pageopacity="0.0"
     inkscape:pagecheckerboard="0"
     inkscape:deskcolor="#d1d1d1"
     inkscape:document-units="mm"
     inkscape:zoom="1.6641134"
     inkscape:cx="219.33601"
     inkscape:cy="101.25512"
     inkscape:window-width="1366"
     inkscape:window-height="705"
     inkscape:window-x="-8"
     inkscape:window-y="-8"
     inkscape:window-maximized="1"
     inkscape:current-layer="layer1" />
  <defs
     id="defs1" />
  <g
     inkscape:label="Layer 1"
     inkscape:groupmode="layer"
     id="layer1">
    <circle
       style="fill:#ffb5e6;stroke-width:0.79375;stroke-linecap:round;paint-order:fill markers stroke"
       id="path1"
       cx="4.7624998"
       cy="4.7624998"
       r="4.7624998" />
    <g
       id="g4"
       transform="matrix(0.03153578,0,0,0.03153578,0.72316078,0.72519274)">
      <g
         id="g3">
        <g
           id="g2">
          <path
             fill="#000000"
             d="m 120.8,10.2 c -7.6,0.5 -9.3,0.8 -10.7,2.3 -1.4,1.4 -1.2,0.6 -3.9,12.6 -4.3,19.1 -4.5,19.9 -5.9,21.2 -1.2,1.2 -7,3.8 -9.7,4.4 -1.9,0.4 -3.4,-0.3 -16.3,-8.5 -14,-8.9 -13.4,-8.5 -15.5,-8.5 -2.4,0 -6.3,3.1 -14.2,11 -8,8 -11,11.9 -11,14.2 0,2.1 -0.3,1.5 8.5,15.5 8.1,12.9 8.9,14.4 8.5,16.3 -0.6,2.7 -3.3,8.5 -4.4,9.7 -1.3,1.4 -2.4,1.7 -21.2,5.9 -5.4,1.2 -10.5,2.5 -11.4,2.9 -0.9,0.4 -1.9,1.5 -2.3,2.3 -1.8,3.8 -1.8,29.3 0,33.1 0.4,0.9 1.4,1.9 2.3,2.3 0.9,0.4 8.2,2.3 16.3,4.1 12.8,2.9 15,3.5 16.1,4.6 1.6,1.5 4.6,8.6 4.6,10.9 0,1.9 0.3,1.3 -10.7,18.8 -7.5,11.9 -7.5,12 -4,16.7 2.9,3.9 14.4,15.3 18.3,18.3 3.2,2.4 5.3,2.8 7.4,1.7 0.6,-0.3 6.3,-3.9 12.8,-8 6.5,-4.1 12.5,-7.7 13.4,-8.1 1.9,-0.8 2.8,-0.6 7.9,1.4 5.9,2.4 5.7,1.9 9.5,18.9 1.8,8.1 3.6,15.4 4,16.2 1.1,2.1 2.2,2.6 6.4,3.2 4.8,0.6 20.4,0.6 25.3,0 6.2,-0.8 5.9,-0.3 10.1,-18.7 4,-17.7 3.7,-17.1 9.7,-19.5 5.1,-2.1 6,-2.3 7.9,-1.4 0.9,0.4 6.9,4 13.4,8.1 14,8.9 13.4,8.5 15.5,8.5 2.3,0 6.3,-3.1 14.2,-11 8,-8 11,-11.9 11,-14.2 0,-2.1 0.3,-1.5 -8.5,-15.5 -4.1,-6.5 -7.7,-12.5 -8.1,-13.4 -0.8,-1.9 -0.6,-2.8 1.4,-7.9 2.4,-6 1.8,-5.7 19.5,-9.7 18.4,-4.2 17.9,-3.9 18.7,-10.1 0.7,-4.9 0.7,-20.4 0,-25.4 -0.8,-6.2 -0.3,-5.9 -18.7,-10.1 -13.3,-3 -15.6,-3.7 -16.7,-4.7 -1.6,-1.5 -4.6,-8.6 -4.6,-10.9 0,-1.9 -0.3,-1.3 10.7,-18.8 7.5,-11.9 7.5,-12 4,-16.7 -2.9,-3.9 -14.4,-15.3 -18.3,-18.3 -3.2,-2.4 -5.3,-2.8 -7.4,-1.7 -0.6,0.3 -6.3,3.9 -12.8,8 -6.5,4.1 -12.5,7.7 -13.4,8.1 -1.9,0.8 -2.8,0.6 -7.9,-1.4 -6,-2.4 -5.7,-1.8 -9.7,-19.5 C 146.7,10.9 147,11.3 140.8,10.7 134.5,10 126.7,9.8 120.8,10.2 Z m 15.9,71.4 c 9.2,1.7 17.7,6.2 24.5,12.9 6.9,6.8 11.5,15.3 13.4,25.2 0.7,3.7 0.7,13 0,16.8 -3.9,19.6 -18.5,34.2 -38.2,38.2 -1.6,0.3 -5.4,0.6 -8.4,0.6 -5.8,0 -9.3,-0.5 -14.4,-2.2 C 87.5,164.8 74,136 84.2,110.5 92.6,89.7 114.6,77.6 136.7,81.6 Z"
             id="path1-2" />
        </g>
      </g>
    </g>
  </g>
</svg>
