<?xml version="1.0" encoding="UTF-8" standalone="no"?>
<!-- Created with Inkscape (http://www.inkscape.org/) -->

<svg
   width="103.87729mm"
   height="106.72325mm"
   viewBox="0 0 103.87729 106.72325"
   version="1.1"
   id="svg1"
   inkscape:version="1.3 (0e150ed6c4, 2023-07-21)"
   sodipodi:docname="spiral.svg"
   xmlns:inkscape="http://www.inkscape.org/namespaces/inkscape"
   xmlns:sodipodi="http://sodipodi.sourceforge.net/DTD/sodipodi-0.dtd"
   xmlns:xlink="http://www.w3.org/1999/xlink"
   xmlns="http://www.w3.org/2000/svg"
   xmlns:svg="http://www.w3.org/2000/svg">
  <sodipodi:namedview
     id="namedview1"
     pagecolor="#ffffff"
     bordercolor="#666666"
     borderopacity="1.0"
     inkscape:showpageshadow="2"
     inkscape:pageopacity="0.0"
     inkscape:pagecheckerboard="0"
     inkscape:deskcolor="#d1d1d1"
     inkscape:document-units="mm"
     inkscape:zoom="1.1767058"
     inkscape:cx="130.44892"
     inkscape:cy="195.88584"
     inkscape:window-width="1366"
     inkscape:window-height="705"
     inkscape:window-x="-8"
     inkscape:window-y="-8"
     inkscape:window-maximized="1"
     inkscape:current-layer="g2" />
  <defs
     id="defs1">
    <linearGradient
       id="linearGradient3"
       inkscape:collect="always">
      <stop
         style="stop-color:#ff8214;stop-opacity:1;"
         offset="0"
         id="stop3" />
      <stop
         style="stop-color:#ff8214;stop-opacity:0;"
         offset="1"
         id="stop4" />
    </linearGradient>
    <linearGradient
       id="linearGradient1"
       inkscape:collect="always">
      <stop
         style="stop-color:#8a0000;stop-opacity:1;"
         offset="0"
         id="stop2" />
      <stop
         style="stop-color:#ff78fc;stop-opacity:1;"
         offset="1"
         id="stop1" />
    </linearGradient>
    <radialGradient
       inkscape:collect="always"
       xlink:href="#linearGradient1"
       id="radialGradient2"
       cx="106.95208"
       cy="139.5336"
       fx="106.95208"
       fy="139.5336"
       r="96.817223"
       gradientTransform="matrix(1,0,0,1.0273974,0,-3.8228607)"
       gradientUnits="userSpaceOnUse" />
    <radialGradient
       inkscape:collect="always"
       xlink:href="#linearGradient3"
       id="radialGradient4"
       cx="53.424232"
       cy="106.75939"
       fx="53.424232"
       fy="106.75939"
       r="49.787767"
       gradientTransform="matrix(1,0,0,1.0016889,0,-0.18030785)"
       gradientUnits="userSpaceOnUse" />
  </defs>
  <g
     inkscape:label="Layer 1"
     inkscape:groupmode="layer"
     id="layer1"
     transform="translate(-10.134859,-40.063839)">
    <g
       id="g2"
       transform="matrix(0.53646078,0,0,0.53646078,4.6979047,18.571161)">
      <rect
         style="fill:url(#radialGradient2);fill-opacity:1;stroke-width:4.64873;paint-order:fill markers stroke"
         id="rect2"
         width="193.63445"
         height="198.93953"
         x="10.134859"
         y="40.063839" />
      <path
         sodipodi:type="spiral"
         style="fill:none;fill-opacity:1;fill-rule:evenodd;stroke:url(#radialGradient4);stroke-width:3.94310094;stroke-dasharray:none;stroke-opacity:1"
         id="path1"
         sodipodi:cx="56.601711"
         sodipodi:cy="106.84368"
         sodipodi:expansion="1"
         sodipodi:revolution="6.1199999"
         sodipodi:radius="52.505196"
         sodipodi:argument="-15.332456"
         sodipodi:t0="0"
         d="m 56.601711,106.84368 c -1.200537,-0.47327 0.04565,-1.85179 0.786602,-1.99537 2.007927,-0.38909 3.321487,1.82862 3.204143,3.56857 -0.2099,3.11238 -3.493063,4.89285 -6.35055,4.41292 -4.193476,-0.70432 -6.49699,-5.17511 -5.621684,-9.13253 1.166644,-5.27461 6.862744,-8.11427 11.914498,-6.830451 6.357117,1.615556 9.738189,8.552891 8.039226,14.696471 -2.057672,7.44071 -10.244411,11.36591 -17.478447,9.248 C 42.570439,118.3154 38.09948,108.8745 40.638732,100.55087 43.570399,90.940906 54.268471,85.923148 63.681127,88.88533 74.376384,92.251149 79.941661,104.20842 76.555436,114.7097 72.756602,126.49055 59.538698,132.60386 47.949092,128.79278 35.082434,124.56176 28.420699,110.08217 32.657242,97.404461 37.319833,83.451818 53.061892,76.241368 66.827533,80.90384 81.866297,85.997523 89.625693,103.00267 84.536925,117.85611 79.012523,133.9811 60.743807,142.28963 44.802686,136.77427 27.591372,130.81945 18.733567,111.28677 24.675752,94.258054 31.060753,75.960348 51.857704,66.553141 69.97394,72.92235 89.358101,79.737329 99.314811,101.79882 92.518415,121.00251 85.273624,141.47318 61.947379,151.97948 41.656279,144.75576 20.099062,137.08129 9.0431018,112.49011 16.694263,91.111647 24.798279,68.467843 50.654564,56.862158 73.120347,64.94086 96.850772,73.474328 109.00623,100.59585 100.4999,124.14892 91.537073,148.96599 63.150202,161.67128 38.509872,152.73725 12.606125,143.34513 -0.64902675,113.6928 8.7127731,87.96524 13.207471,75.613169 22.447695,65.28649 34.175599,59.368793"
         transform="matrix(1.8032162,0,0,1.8085361,5.6846245,-56.503826)" />
      <ellipse
         style="fill:#e70000;fill-opacity:0.936803;stroke:none;stroke-width:3.24447;stroke-dasharray:none;stroke-opacity:1;paint-order:fill markers stroke"
         id="path3"
         cx="108.08377"
         cy="135.47119"
         rx="4.8149061"
         ry="4.8148952" />
      <ellipse
         style="fill:#1300e7;fill-opacity:0.93680298;stroke:none;stroke-width:3.24447;stroke-dasharray:none;stroke-opacity:1;paint-order:fill markers stroke"
         id="path3-1"
         cx="93.026649"
         cy="135.05205"
         rx="4.8149061"
         ry="4.8148952" />
      <ellipse
         style="fill:#00ff00;fill-opacity:0.936803;stroke:none;stroke-width:3.24447;stroke-dasharray:none;stroke-opacity:1;paint-order:fill markers stroke"
         id="path3-1-4"
         cx="108.08377"
         cy="118.14694"
         rx="4.8149061"
         ry="4.8148952" />
    </g>
  </g>
</svg>
