<?xml version="1.0" encoding="UTF-8" standalone="no"?>
<!-- Created with Inkscape (http://www.inkscape.org/) -->

<svg
   width="36"
   height="36"
   viewBox="0 0 9.5249998 9.5249999"
   version="1.1"
   id="svg1"
   inkscape:version="1.3 (0e150ed6c4, 2023-07-21)"
   sodipodi:docname="back.svg"
   inkscape:export-filename="back.png"
   inkscape:export-xdpi="96"
   inkscape:export-ydpi="96"
   xmlns:inkscape="http://www.inkscape.org/namespaces/inkscape"
   xmlns:sodipodi="http://sodipodi.sourceforge.net/DTD/sodipodi-0.dtd"
   xmlns="http://www.w3.org/2000/svg"
   xmlns:svg="http://www.w3.org/2000/svg">
  <sodipodi:namedview
     id="namedview1"
     pagecolor="#ffffff"
     bordercolor="#666666"
     borderopacity="1.0"
     inkscape:showpageshadow="2"
     inkscape:pageopacity="0.0"
     inkscape:pagecheckerboard="0"
     inkscape:deskcolor="#d1d1d1"
     inkscape:document-units="mm"
     inkscape:zoom="4.7068233"
     inkscape:cx="61.293994"
     inkscape:cy="19.864778"
     inkscape:window-width="1366"
     inkscape:window-height="705"
     inkscape:window-x="-8"
     inkscape:window-y="-8"
     inkscape:window-maximized="1"
     inkscape:current-layer="layer1" />
  <defs
     id="defs1" />
  <g
     inkscape:label="Layer 1"
     inkscape:groupmode="layer"
     id="layer1">
    <circle
       style="fill:#ffb5e6;fill-opacity:0.74814814;stroke-width:0.0397195;-inkscape-stroke:none;paint-order:fill markers stroke"
       id="path1"
       cx="4.7624998"
       cy="4.7624998"
       r="4.7624998" />
    <path
       id="path2"
       style="color:#000000;fill:#000000;stroke-linecap:round;-inkscape-stroke:none"
       d="M 3.7909831 1.9192627 A 0.45854101 0.45854101 0 0 0 3.4685221 2.0587891 L 1.2665894 4.3268677 A 0.45854101 0.45854101 0 0 0 1.1404989 4.4100667 A 0.45854101 0.45854101 0 0 0 1.0051066 4.7625 A 0.45854101 0.45854101 0 0 0 1.1404989 5.11545 A 0.45854101 0.45854101 0 0 0 1.2665894 5.1986491 L 3.4685221 7.4667277 A 0.45854101 0.45854101 0 0 0 4.1170614 7.4765462 A 0.45854101 0.45854101 0 0 0 4.1268799 6.828007 L 2.589506 5.2441243 L 8.0661743 5.2441243 A 0.45854101 0.45854101 0 0 0 8.5255778 4.7852376 A 0.45854101 0.45854101 0 0 0 8.0661743 4.3263509 L 2.5450643 4.3263509 L 4.1268799 2.6975098 A 0.45854101 0.45854101 0 0 0 4.1170614 2.0489705 A 0.45854101 0.45854101 0 0 0 3.7909831 1.9192627 z " />
  </g>
</svg>
