<?xml version="1.0" encoding="UTF-8" standalone="no"?>
<!-- Created with Inkscape (http://www.inkscape.org/) -->

<svg
   width="123.42048"
   height="75.785042"
   viewBox="0 0 32.655001 20.051459"
   version="1.1"
   id="svg1"
   inkscape:version="1.3 (0e150ed6c4, 2023-07-21)"
   sodipodi:docname="eye.svg"
   xml:space="preserve"
   xmlns:inkscape="http://www.inkscape.org/namespaces/inkscape"
   xmlns:sodipodi="http://sodipodi.sourceforge.net/DTD/sodipodi-0.dtd"
   xmlns:xlink="http://www.w3.org/1999/xlink"
   xmlns="http://www.w3.org/2000/svg"
   xmlns:svg="http://www.w3.org/2000/svg"><sodipodi:namedview
     id="namedview1"
     pagecolor="#ffffff"
     bordercolor="#666666"
     borderopacity="1.0"
     inkscape:showpageshadow="2"
     inkscape:pageopacity="0.0"
     inkscape:pagecheckerboard="0"
     inkscape:deskcolor="#d1d1d1"
     inkscape:document-units="mm"
     inkscape:zoom="1.6641134"
     inkscape:cx="120.18412"
     inkscape:cy="21.332681"
     inkscape:window-width="1366"
     inkscape:window-height="705"
     inkscape:window-x="-8"
     inkscape:window-y="-8"
     inkscape:window-maximized="1"
     inkscape:current-layer="layer1" /><defs
     id="defs1"><linearGradient
       id="linearGradient4"
       inkscape:collect="always"><stop
         style="stop-color:#ffffff;stop-opacity:1;"
         offset="0"
         id="stop4" /><stop
         style="stop-color:#da8eff;stop-opacity:1;"
         offset="1"
         id="stop6" /></linearGradient><radialGradient
       inkscape:collect="always"
       xlink:href="#linearGradient4"
       id="radialGradient5"
       cx="32.585316"
       cy="13.545185"
       fx="32.585316"
       fy="13.545185"
       r="15.341141"
       gradientTransform="matrix(1,0,0,0.39981491,0,8.1296179)"
       gradientUnits="userSpaceOnUse" /></defs><g
     inkscape:label="Layer 1"
     inkscape:groupmode="layer"
     id="layer1"
     transform="translate(-16.307157,-3.6504406)"><path
       style="fill:none;stroke:#000000;stroke-width:0.79375;stroke-linecap:butt;stroke-linejoin:miter;stroke-dasharray:none;stroke-opacity:1"
       d="m 18.887473,13.229167 c 0,0 4.047316,-5.5842375 12.366798,-5.3593867 8.319481,0.2248509 15.065007,5.3593867 15.065007,5.3593867 0,0 -7.644929,5.883157 -14.615305,6.108008 -6.970378,0.224851 -12.8165,-6.108008 -12.8165,-6.108008 z"
       id="path1" /><path
       style="fill:url(#radialGradient5);stroke:#000000;stroke-width:0.820923;stroke-linecap:butt;stroke-linejoin:miter;stroke-dasharray:none;stroke-opacity:1"
       d="m 17.790196,13.172283 c 0,0 4.341858,-5.5679165 13.266789,-5.3437229 8.924928,0.2241936 16.161358,5.3437229 16.161358,5.3437229 0,0 -8.201287,5.865964 -15.67893,6.090158 -7.477644,0.224193 -13.749217,-6.090158 -13.749217,-6.090158 z"
       id="path1-9" /><ellipse
       style="fill:#9800e6;fill-opacity:1;stroke:#272354;stroke-width:1.4791;stroke-linecap:round;stroke-linejoin:round;stroke-dasharray:none;paint-order:fill markers stroke;stroke-opacity:1"
       id="path2"
       cx="30.579718"
       cy="13.306606"
       rx="5.5034456"
       ry="5.3910203" /><ellipse
       style="fill:#580086;fill-opacity:1;stroke:#06050c;stroke-width:0.706656;stroke-linecap:round;stroke-linejoin:round;stroke-dasharray:none;paint-order:fill markers stroke;stroke-opacity:1"
       id="path2-4"
       cx="30.579718"
       cy="13.306606"
       rx="2.6293302"
       ry="2.5756176" /><path
       style="fill:none;stroke:#414141;stroke-width:0.79375;stroke-linecap:butt;stroke-linejoin:miter;stroke-dasharray:none;stroke-opacity:1"
       d="m 16.638964,11.242543 c 0,0 4.721868,-7.1952274 14.615307,-7.1952274 9.893437,0 14.390454,4.4970175 14.390454,4.4970175"
       id="path3" /><path
       style="fill:none;stroke:#999999;stroke-width:0.733188;stroke-linecap:butt;stroke-linejoin:miter;stroke-dasharray:none;stroke-opacity:1"
       d="m 17.506355,11.835655 c 0,0 4.729488,-6.1292472 14.638895,-6.1292472 9.909404,0 14.413679,3.8307791 14.413679,3.8307791"
       id="path3-6" /><path
       style="fill:none;stroke:#868686;stroke-width:0.79375;stroke-linecap:butt;stroke-linejoin:miter;stroke-dasharray:none;stroke-opacity:1"
       d="m 18.887473,16.78435 c 0,0 6.970377,6.520675 13.041351,6.520675 6.070973,0 14.615305,-4.721868 14.615305,-4.721868"
       id="path4" /><ellipse
       style="fill:#ffffff;fill-opacity:0.423792;stroke:none;stroke-width:0.792659;stroke-linecap:round;stroke-linejoin:round;stroke-dasharray:none;paint-order:fill markers stroke"
       id="path6"
       cx="26.472431"
       cy="10.89106"
       rx="2.623394"
       ry="0.87446469" /><ellipse
       style="fill:#ffffff;fill-opacity:0.423792;stroke:none;stroke-width:0.487848;stroke-linecap:round;stroke-linejoin:round;stroke-dasharray:none;paint-order:fill markers stroke"
       id="path6-1"
       cx="28.89542"
       cy="12.927271"
       rx="0.87446469"
       ry="0.99370986" /><path
       style="fill:none;stroke:#000000;stroke-width:0.404889;stroke-linecap:butt;stroke-linejoin:miter;stroke-dasharray:none;stroke-opacity:1"
       d="m 18.022941,16.877032 c -0.441747,-1.876117 1.214804,-2.144133 1.214804,-2.144133"
       id="path7" /><path
       style="fill:none;stroke:#000000;stroke-width:0.404889;stroke-linecap:butt;stroke-linejoin:miter;stroke-dasharray:none;stroke-opacity:1"
       d="m 21.440902,18.748146 c -0.441747,-1.876117 1.214804,-2.144133 1.214804,-2.144133"
       id="path7-1-6" /><path
       style="fill:none;stroke:#000000;stroke-width:0.404889;stroke-linecap:butt;stroke-linejoin:miter;stroke-dasharray:none;stroke-opacity:1"
       d="m 23.028403,19.80648 c -0.441747,-1.876117 1.214804,-2.144133 1.214804,-2.144133"
       id="path7-1-6-9" /><path
       style="fill:none;stroke:#000000;stroke-width:0.404889;stroke-linecap:butt;stroke-linejoin:miter;stroke-dasharray:none;stroke-opacity:1"
       d="m 25.145071,20.335647 c -0.441747,-1.876117 1.214804,-2.144133 1.214804,-2.144133"
       id="path7-1-6-9-6" /><path
       style="fill:none;stroke:#000000;stroke-width:0.404889;stroke-linecap:butt;stroke-linejoin:miter;stroke-dasharray:none;stroke-opacity:1"
       d="M 27.261739,20.864813 C 26.819992,18.988696 28.476543,18.72068 28.476543,18.72068"
       id="path7-1-6-9-6-2" /><path
       style="fill:none;stroke:#000000;stroke-width:0.404889;stroke-linecap:butt;stroke-linejoin:miter;stroke-dasharray:none;stroke-opacity:1"
       d="M 29.378406,21.393981 C 28.936659,19.517864 30.59321,19.249848 30.59321,19.249848"
       id="path7-1-6-9-6-2-8" /><path
       style="fill:none;stroke:#000000;stroke-width:0.404889;stroke-linecap:butt;stroke-linejoin:miter;stroke-dasharray:none;stroke-opacity:1"
       d="m 31.759649,21.393978 c -0.441747,-1.876117 1.214804,-2.144133 1.214804,-2.144133"
       id="path7-1-6-9-6-2-8-6" /><path
       style="fill:none;stroke:#000000;stroke-width:0.404889;stroke-linecap:butt;stroke-linejoin:miter;stroke-dasharray:none;stroke-opacity:1"
       d="m 18.001307,9.5713919 c -0.441747,1.8761171 1.214804,2.1441331 1.214804,2.1441331"
       id="path7-1-6-9-6-2-8-6-7" /><path
       style="fill:none;stroke:#000000;stroke-width:0.404889;stroke-linecap:butt;stroke-linejoin:miter;stroke-dasharray:none;stroke-opacity:1"
       d="m 30.436729,5.6026508 c -0.441747,1.8761158 1.214804,2.1441318 1.214804,2.1441318"
       id="path7-1-6-9-6-2-8-6-7-2" /><path
       style="fill:none;stroke:#000000;stroke-width:0.404889;stroke-linecap:butt;stroke-linejoin:miter;stroke-dasharray:none;stroke-opacity:1"
       d="m 32.553397,5.6026508 c -0.441747,1.8761148 1.214804,2.1441308 1.214804,2.1441308"
       id="path7-1-6-9-6-2-8-6-7-2-9" /><path
       style="fill:none;stroke:#000000;stroke-width:0.404889;stroke-linecap:butt;stroke-linejoin:miter;stroke-dasharray:none;stroke-opacity:1"
       d="m 27.790897,5.813828 c -0.441747,1.8761148 1.214804,2.1441308 1.214804,2.1441308"
       id="path7-1-6-9-6-2-8-6-7-2-9-7" /><path
       style="fill:none;stroke:#000000;stroke-width:0.404889;stroke-linecap:butt;stroke-linejoin:miter;stroke-dasharray:none;stroke-opacity:1"
       d="m 20.382548,7.983899 c -0.441747,1.8761147 1.214804,2.144131 1.214804,2.144131"
       id="path7-1-6-9-6-2-8-6-7-2-9-7-6" /><path
       style="fill:none;stroke:#000000;stroke-width:0.404889;stroke-linecap:butt;stroke-linejoin:miter;stroke-dasharray:none;stroke-opacity:1"
       d="m 25.145062,6.1318151 c -0.441747,1.8761148 1.214804,2.1441308 1.214804,2.1441308"
       id="path7-1-6-9-6-2-8-6-7-2-9-7-9" /><path
       style="fill:none;stroke:#000000;stroke-width:0.404889;stroke-linecap:butt;stroke-linejoin:miter;stroke-dasharray:none;stroke-opacity:1"
       d="m 22.499231,6.3963985 c -0.441747,1.8761148 1.214804,2.1441308 1.214804,2.1441308"
       id="path7-1-6-9-6-2-8-6-7-2-9-7-9-2" /><path
       style="fill:none;stroke:#000000;stroke-width:0.404889;stroke-linecap:butt;stroke-linejoin:miter;stroke-dasharray:none;stroke-opacity:1"
       d="M 35.199235,6.1318152 C 34.757488,8.00793 36.414039,8.275946 36.414039,8.275946"
       id="path7-1-6-9-6-2-8-6-7-2-9-6" /><path
       style="fill:none;stroke:#000000;stroke-width:0.404889;stroke-linecap:butt;stroke-linejoin:miter;stroke-dasharray:none;stroke-opacity:1"
       d="m 37.315902,6.6609818 c -0.441747,1.8761148 1.214804,2.1441308 1.214804,2.1441308"
       id="path7-1-6-9-6-2-8-6-7-2-9-6-9" /><path
       style="fill:none;stroke:#000000;stroke-width:0.404889;stroke-linecap:butt;stroke-linejoin:miter;stroke-dasharray:none;stroke-opacity:1"
       d="m 39.432571,7.1901487 c -0.441747,1.8761148 1.214804,2.1441308 1.214804,2.1441308"
       id="path7-1-6-9-6-2-8-6-7-2-9-6-9-3" /><path
       style="fill:none;stroke:#000000;stroke-width:0.404889;stroke-linecap:butt;stroke-linejoin:miter;stroke-dasharray:none;stroke-opacity:1"
       d="m 41.601423,8.0894884 c -0.441747,1.876115 1.214804,2.1441306 1.214804,2.1441306"
       id="path7-1-6-9-6-2-8-6-7-2-9-6-9-3-6" /><path
       style="fill:none;stroke:#000000;stroke-width:0.404889;stroke-linecap:butt;stroke-linejoin:miter;stroke-dasharray:none;stroke-opacity:1"
       d="m 43.665907,9.3068154 c -0.441747,1.8761156 1.214804,2.1441316 1.214804,2.1441316"
       id="path7-1-6-9-6-2-8-6-7-2-9-6-9-3-6-6" /><path
       style="fill:none;stroke:#000000;stroke-width:0.404889;stroke-linecap:butt;stroke-linejoin:miter;stroke-dasharray:none;stroke-opacity:1"
       d="m 45.782574,9.8359823 c -0.441747,1.8761157 1.214804,2.1441317 1.214804,2.1441317"
       id="path7-1-6-9-6-2-8-6-7-2-9-6-9-3-6-6-7" /><path
       style="fill:none;stroke:#000000;stroke-width:0.404889;stroke-linecap:butt;stroke-linejoin:miter;stroke-dasharray:none;stroke-opacity:1"
       d="m 33.876318,21.234984 c -0.441747,-1.876117 1.214804,-2.144133 1.214804,-2.144133"
       id="path7-1-6-9-6-2-8-6-3" /><path
       style="fill:none;stroke:#000000;stroke-width:0.404889;stroke-linecap:butt;stroke-linejoin:miter;stroke-dasharray:none;stroke-opacity:1"
       d="M 35.992986,20.546822 C 35.551239,18.670705 37.20779,18.402689 37.20779,18.402689"
       id="path7-1-6-9-6-2-8-6-3-0" /><path
       style="fill:none;stroke:#000000;stroke-width:0.404889;stroke-linecap:butt;stroke-linejoin:miter;stroke-dasharray:none;stroke-opacity:1"
       d="m 38.109653,19.96547 c -0.441747,-1.876117 1.214804,-2.144133 1.214804,-2.144133"
       id="path7-1-6-9-6-2-8-6-3-0-7" /><path
       style="fill:none;stroke:#000000;stroke-width:0.404889;stroke-linecap:butt;stroke-linejoin:miter;stroke-dasharray:none;stroke-opacity:1"
       d="m 46.311739,16.102309 c -0.441747,-1.876117 1.214804,-2.144133 1.214804,-2.144133"
       id="path7-1-6-9-6-2-8-6-3-0-7-5-9-0-9" /><path
       style="fill:none;stroke:#000000;stroke-width:0.404889;stroke-linecap:butt;stroke-linejoin:miter;stroke-dasharray:none;stroke-opacity:1"
       d="m 40.120727,19.171721 c -0.441747,-1.876117 1.214804,-2.144133 1.214804,-2.144133"
       id="path7-1-6-9-6-2-8-6-3-0-7-5" /><path
       style="fill:none;stroke:#000000;stroke-width:0.404889;stroke-linecap:butt;stroke-linejoin:miter;stroke-dasharray:none;stroke-opacity:1"
       d="m 42.078403,18.272381 c -0.441747,-1.876117 1.214804,-2.144133 1.214804,-2.144133"
       id="path7-1-6-9-6-2-8-6-3-0-7-5-9" /><path
       style="fill:none;stroke:#000000;stroke-width:0.404889;stroke-linecap:butt;stroke-linejoin:miter;stroke-dasharray:none;stroke-opacity:1"
       d="m 44.036075,17.214047 c -0.441747,-1.876117 1.214804,-2.144133 1.214804,-2.144133"
       id="path7-1-6-9-6-2-8-6-3-0-7-5-9-0" /><path
       style="fill:none;stroke:#000000;stroke-width:0.404889;stroke-linecap:butt;stroke-linejoin:miter;stroke-dasharray:none;stroke-opacity:1"
       d="m 19.853401,17.689812 c -0.441747,-1.876117 1.214804,-2.144133 1.214804,-2.144133"
       id="path7-1" /><path
       style="fill:none;stroke:#000000;stroke-width:0.841348;stroke-linecap:butt;stroke-linejoin:miter;stroke-dasharray:none;stroke-opacity:1"
       d="m 17.229427,13.169885 c 0,0 4.57085,-5.5554252 13.966489,-5.3317346 9.395635,0.2236907 17.013719,5.3317346 17.013719,5.3317346 0,0 -8.633829,5.852803 -16.505848,6.076494 -7.87202,0.22369 -14.47436,-6.076494 -14.47436,-6.076494 z"
       id="path1-9-0" /></g></svg>
