<?xml version="1.0" encoding="UTF-8" standalone="no"?>
<!-- Created with Inkscape (http://www.inkscape.org/) -->

<svg
   width="123.42048"
   height="75.785042"
   viewBox="0 0 32.655001 20.051459"
   version="1.1"
   id="svg1"
   inkscape:version="1.3 (0e150ed6c4, 2023-07-21)"
   sodipodi:docname="eye-left.svg"
   xml:space="preserve"
   xmlns:inkscape="http://www.inkscape.org/namespaces/inkscape"
   xmlns:sodipodi="http://sodipodi.sourceforge.net/DTD/sodipodi-0.dtd"
   xmlns:xlink="http://www.w3.org/1999/xlink"
   xmlns="http://www.w3.org/2000/svg"
   xmlns:svg="http://www.w3.org/2000/svg"><sodipodi:namedview
     id="namedview1"
     pagecolor="#ffffff"
     bordercolor="#666666"
     borderopacity="1.0"
     inkscape:showpageshadow="2"
     inkscape:pageopacity="0.0"
     inkscape:pagecheckerboard="0"
     inkscape:deskcolor="#d1d1d1"
     inkscape:document-units="mm"
     inkscape:zoom="1.6641134"
     inkscape:cx="120.18412"
     inkscape:cy="21.332681"
     inkscape:window-width="1366"
     inkscape:window-height="705"
     inkscape:window-x="-8"
     inkscape:window-y="-8"
     inkscape:window-maximized="1"
     inkscape:current-layer="layer1" /><defs
     id="defs1"><linearGradient
       id="linearGradient4"
       inkscape:collect="always"><stop
         style="stop-color:#ffffff;stop-opacity:1;"
         offset="0"
         id="stop4" /><stop
         style="stop-color:#da8eff;stop-opacity:1;"
         offset="1"
         id="stop6" /></linearGradient><radialGradient
       inkscape:collect="always"
       xlink:href="#linearGradient4"
       id="radialGradient5"
       cx="32.585316"
       cy="13.545185"
       fx="32.585316"
       fy="13.545185"
       r="15.341141"
       gradientTransform="matrix(-1,0,0,0.39981491,65.269316,8.1296179)"
       gradientUnits="userSpaceOnUse" /></defs><g
     inkscape:label="Layer 1"
     inkscape:groupmode="layer"
     id="layer1"
     transform="translate(-16.307157,-3.6504406)"><path
       style="fill:none;stroke:#000000;stroke-width:0.79375;stroke-linecap:butt;stroke-linejoin:miter;stroke-dasharray:none;stroke-opacity:1"
       d="m 46.381843,13.229167 c 0,0 -4.047316,-5.5842375 -12.366798,-5.3593867 -8.319481,0.2248509 -15.065007,5.3593867 -15.065007,5.3593867 0,0 7.644929,5.883157 14.615305,6.108008 6.970378,0.224851 12.8165,-6.108008 12.8165,-6.108008 z"
       id="path1" /><path
       style="fill:url(#radialGradient5);stroke:#000000;stroke-width:0.820923;stroke-linecap:butt;stroke-linejoin:miter;stroke-dasharray:none;stroke-opacity:1"
       d="m 47.47912,13.172283 c 0,0 -4.341858,-5.5679165 -13.266789,-5.3437229 -8.924928,0.2241936 -16.161358,5.3437229 -16.161358,5.3437229 0,0 8.201287,5.865964 15.67893,6.090158 7.477644,0.224193 13.749217,-6.090158 13.749217,-6.090158 z"
       id="path1-9" /><ellipse
       style="fill:#9800e6;fill-opacity:1;stroke:#272354;stroke-width:1.4791;stroke-linecap:round;stroke-linejoin:round;stroke-dasharray:none;stroke-opacity:1;paint-order:fill markers stroke"
       id="path2"
       cx="-34.689598"
       cy="13.306606"
       rx="5.5034456"
       ry="5.3910203"
       transform="scale(-1,1)" /><ellipse
       style="fill:#580086;fill-opacity:1;stroke:#06050c;stroke-width:0.706656;stroke-linecap:round;stroke-linejoin:round;stroke-dasharray:none;stroke-opacity:1;paint-order:fill markers stroke"
       id="path2-4"
       cx="-34.689598"
       cy="13.306606"
       rx="2.6293302"
       ry="2.5756176"
       transform="scale(-1,1)" /><path
       style="fill:none;stroke:#414141;stroke-width:0.79375;stroke-linecap:butt;stroke-linejoin:miter;stroke-dasharray:none;stroke-opacity:1"
       d="m 48.630352,11.242543 c 0,0 -4.721868,-7.1952274 -14.615307,-7.1952274 -9.893437,0 -14.390454,4.4970175 -14.390454,4.4970175"
       id="path3" /><path
       style="fill:none;stroke:#999999;stroke-width:0.733188;stroke-linecap:butt;stroke-linejoin:miter;stroke-dasharray:none;stroke-opacity:1"
       d="m 47.762961,11.835655 c 0,0 -4.729488,-6.1292472 -14.638895,-6.1292472 -9.909404,0 -14.413679,3.8307791 -14.413679,3.8307791"
       id="path3-6" /><path
       style="fill:none;stroke:#868686;stroke-width:0.79375;stroke-linecap:butt;stroke-linejoin:miter;stroke-dasharray:none;stroke-opacity:1"
       d="m 46.381843,16.78435 c 0,0 -6.970377,6.520675 -13.041351,6.520675 -6.070973,0 -14.615305,-4.721868 -14.615305,-4.721868"
       id="path4" /><ellipse
       style="fill:#ffffff;fill-opacity:0.423792;stroke:none;stroke-width:0.792659;stroke-linecap:round;stroke-linejoin:round;stroke-dasharray:none;paint-order:fill markers stroke"
       id="path6"
       cx="-38.796886"
       cy="10.89106"
       rx="2.623394"
       ry="0.87446469"
       transform="scale(-1,1)" /><ellipse
       style="fill:#ffffff;fill-opacity:0.423792;stroke:none;stroke-width:0.487848;stroke-linecap:round;stroke-linejoin:round;stroke-dasharray:none;paint-order:fill markers stroke"
       id="path6-1"
       cx="-36.373898"
       cy="12.927271"
       rx="0.87446469"
       ry="0.99370986"
       transform="scale(-1,1)" /><path
       style="fill:none;stroke:#000000;stroke-width:0.404889;stroke-linecap:butt;stroke-linejoin:miter;stroke-dasharray:none;stroke-opacity:1"
       d="m 47.246375,16.877032 c 0.441747,-1.876117 -1.214804,-2.144133 -1.214804,-2.144133"
       id="path7" /><path
       style="fill:none;stroke:#000000;stroke-width:0.404889;stroke-linecap:butt;stroke-linejoin:miter;stroke-dasharray:none;stroke-opacity:1"
       d="M 43.828414,18.748146 C 44.270161,16.872029 42.61361,16.604013 42.61361,16.604013"
       id="path7-1-6" /><path
       style="fill:none;stroke:#000000;stroke-width:0.404889;stroke-linecap:butt;stroke-linejoin:miter;stroke-dasharray:none;stroke-opacity:1"
       d="M 42.240913,19.80648 C 42.68266,17.930363 41.026109,17.662347 41.026109,17.662347"
       id="path7-1-6-9" /><path
       style="fill:none;stroke:#000000;stroke-width:0.404889;stroke-linecap:butt;stroke-linejoin:miter;stroke-dasharray:none;stroke-opacity:1"
       d="M 40.124245,20.335647 C 40.565992,18.45953 38.909441,18.191514 38.909441,18.191514"
       id="path7-1-6-9-6" /><path
       style="fill:none;stroke:#000000;stroke-width:0.404889;stroke-linecap:butt;stroke-linejoin:miter;stroke-dasharray:none;stroke-opacity:1"
       d="M 38.007577,20.864813 C 38.449324,18.988696 36.792773,18.72068 36.792773,18.72068"
       id="path7-1-6-9-6-2" /><path
       style="fill:none;stroke:#000000;stroke-width:0.404889;stroke-linecap:butt;stroke-linejoin:miter;stroke-dasharray:none;stroke-opacity:1"
       d="m 35.89091,21.393981 c 0.441747,-1.876117 -1.214804,-2.144133 -1.214804,-2.144133"
       id="path7-1-6-9-6-2-8" /><path
       style="fill:none;stroke:#000000;stroke-width:0.404889;stroke-linecap:butt;stroke-linejoin:miter;stroke-dasharray:none;stroke-opacity:1"
       d="m 33.509667,21.393978 c 0.441747,-1.876117 -1.214804,-2.144133 -1.214804,-2.144133"
       id="path7-1-6-9-6-2-8-6" /><path
       style="fill:none;stroke:#000000;stroke-width:0.404889;stroke-linecap:butt;stroke-linejoin:miter;stroke-dasharray:none;stroke-opacity:1"
       d="m 47.268009,9.5713919 c 0.441747,1.8761171 -1.214804,2.1441331 -1.214804,2.1441331"
       id="path7-1-6-9-6-2-8-6-7" /><path
       style="fill:none;stroke:#000000;stroke-width:0.404889;stroke-linecap:butt;stroke-linejoin:miter;stroke-dasharray:none;stroke-opacity:1"
       d="m 34.832587,5.6026508 c 0.441747,1.8761158 -1.214804,2.1441318 -1.214804,2.1441318"
       id="path7-1-6-9-6-2-8-6-7-2" /><path
       style="fill:none;stroke:#000000;stroke-width:0.404889;stroke-linecap:butt;stroke-linejoin:miter;stroke-dasharray:none;stroke-opacity:1"
       d="m 32.715919,5.6026508 c 0.441747,1.8761148 -1.214804,2.1441308 -1.214804,2.1441308"
       id="path7-1-6-9-6-2-8-6-7-2-9" /><path
       style="fill:none;stroke:#000000;stroke-width:0.404889;stroke-linecap:butt;stroke-linejoin:miter;stroke-dasharray:none;stroke-opacity:1"
       d="m 37.478419,5.813828 c 0.441747,1.8761148 -1.214804,2.1441308 -1.214804,2.1441308"
       id="path7-1-6-9-6-2-8-6-7-2-9-7" /><path
       style="fill:none;stroke:#000000;stroke-width:0.404889;stroke-linecap:butt;stroke-linejoin:miter;stroke-dasharray:none;stroke-opacity:1"
       d="m 44.886768,7.983899 c 0.441747,1.8761147 -1.214804,2.144131 -1.214804,2.144131"
       id="path7-1-6-9-6-2-8-6-7-2-9-7-6" /><path
       style="fill:none;stroke:#000000;stroke-width:0.404889;stroke-linecap:butt;stroke-linejoin:miter;stroke-dasharray:none;stroke-opacity:1"
       d="M 40.124254,6.1318151 C 40.566001,8.0079299 38.90945,8.2759459 38.90945,8.2759459"
       id="path7-1-6-9-6-2-8-6-7-2-9-7-9" /><path
       style="fill:none;stroke:#000000;stroke-width:0.404889;stroke-linecap:butt;stroke-linejoin:miter;stroke-dasharray:none;stroke-opacity:1"
       d="m 42.770085,6.3963985 c 0.441747,1.8761148 -1.214804,2.1441308 -1.214804,2.1441308"
       id="path7-1-6-9-6-2-8-6-7-2-9-7-9-2" /><path
       style="fill:none;stroke:#000000;stroke-width:0.404889;stroke-linecap:butt;stroke-linejoin:miter;stroke-dasharray:none;stroke-opacity:1"
       d="M 30.070081,6.1318152 C 30.511828,8.00793 28.855277,8.275946 28.855277,8.275946"
       id="path7-1-6-9-6-2-8-6-7-2-9-6" /><path
       style="fill:none;stroke:#000000;stroke-width:0.404889;stroke-linecap:butt;stroke-linejoin:miter;stroke-dasharray:none;stroke-opacity:1"
       d="M 27.953414,6.6609818 C 28.395161,8.5370966 26.73861,8.8051126 26.73861,8.8051126"
       id="path7-1-6-9-6-2-8-6-7-2-9-6-9" /><path
       style="fill:none;stroke:#000000;stroke-width:0.404889;stroke-linecap:butt;stroke-linejoin:miter;stroke-dasharray:none;stroke-opacity:1"
       d="m 25.836745,7.1901487 c 0.441747,1.8761148 -1.214804,2.1441308 -1.214804,2.1441308"
       id="path7-1-6-9-6-2-8-6-7-2-9-6-9-3" /><path
       style="fill:none;stroke:#000000;stroke-width:0.404889;stroke-linecap:butt;stroke-linejoin:miter;stroke-dasharray:none;stroke-opacity:1"
       d="m 23.667893,8.0894884 c 0.441747,1.876115 -1.214804,2.1441306 -1.214804,2.1441306"
       id="path7-1-6-9-6-2-8-6-7-2-9-6-9-3-6" /><path
       style="fill:none;stroke:#000000;stroke-width:0.404889;stroke-linecap:butt;stroke-linejoin:miter;stroke-dasharray:none;stroke-opacity:1"
       d="m 21.603409,9.3068154 c 0.441747,1.8761156 -1.214804,2.1441316 -1.214804,2.1441316"
       id="path7-1-6-9-6-2-8-6-7-2-9-6-9-3-6-6" /><path
       style="fill:none;stroke:#000000;stroke-width:0.404889;stroke-linecap:butt;stroke-linejoin:miter;stroke-dasharray:none;stroke-opacity:1"
       d="m 19.486742,9.8359823 c 0.441747,1.8761157 -1.214804,2.1441317 -1.214804,2.1441317"
       id="path7-1-6-9-6-2-8-6-7-2-9-6-9-3-6-6-7" /><path
       style="fill:none;stroke:#000000;stroke-width:0.404889;stroke-linecap:butt;stroke-linejoin:miter;stroke-dasharray:none;stroke-opacity:1"
       d="m 31.392998,21.234984 c 0.441747,-1.876117 -1.214804,-2.144133 -1.214804,-2.144133"
       id="path7-1-6-9-6-2-8-6-3" /><path
       style="fill:none;stroke:#000000;stroke-width:0.404889;stroke-linecap:butt;stroke-linejoin:miter;stroke-dasharray:none;stroke-opacity:1"
       d="m 29.27633,20.546822 c 0.441747,-1.876117 -1.214804,-2.144133 -1.214804,-2.144133"
       id="path7-1-6-9-6-2-8-6-3-0" /><path
       style="fill:none;stroke:#000000;stroke-width:0.404889;stroke-linecap:butt;stroke-linejoin:miter;stroke-dasharray:none;stroke-opacity:1"
       d="M 27.159663,19.96547 C 27.60141,18.089353 25.944859,17.821337 25.944859,17.821337"
       id="path7-1-6-9-6-2-8-6-3-0-7" /><path
       style="fill:none;stroke:#000000;stroke-width:0.404889;stroke-linecap:butt;stroke-linejoin:miter;stroke-dasharray:none;stroke-opacity:1"
       d="m 18.957577,16.102309 c 0.441747,-1.876117 -1.214804,-2.144133 -1.214804,-2.144133"
       id="path7-1-6-9-6-2-8-6-3-0-7-5-9-0-9" /><path
       style="fill:none;stroke:#000000;stroke-width:0.404889;stroke-linecap:butt;stroke-linejoin:miter;stroke-dasharray:none;stroke-opacity:1"
       d="m 25.148589,19.171721 c 0.441747,-1.876117 -1.214804,-2.144133 -1.214804,-2.144133"
       id="path7-1-6-9-6-2-8-6-3-0-7-5" /><path
       style="fill:none;stroke:#000000;stroke-width:0.404889;stroke-linecap:butt;stroke-linejoin:miter;stroke-dasharray:none;stroke-opacity:1"
       d="M 23.190913,18.272381 C 23.63266,16.396264 21.976109,16.128248 21.976109,16.128248"
       id="path7-1-6-9-6-2-8-6-3-0-7-5-9" /><path
       style="fill:none;stroke:#000000;stroke-width:0.404889;stroke-linecap:butt;stroke-linejoin:miter;stroke-dasharray:none;stroke-opacity:1"
       d="M 21.233241,17.214047 C 21.674988,15.33793 20.018437,15.069914 20.018437,15.069914"
       id="path7-1-6-9-6-2-8-6-3-0-7-5-9-0" /><path
       style="fill:none;stroke:#000000;stroke-width:0.404889;stroke-linecap:butt;stroke-linejoin:miter;stroke-dasharray:none;stroke-opacity:1"
       d="m 45.415915,17.689812 c 0.441747,-1.876117 -1.214804,-2.144133 -1.214804,-2.144133"
       id="path7-1" /><path
       style="fill:none;stroke:#000000;stroke-width:0.841348;stroke-linecap:butt;stroke-linejoin:miter;stroke-dasharray:none;stroke-opacity:1"
       d="m 48.039889,13.169885 c 0,0 -4.57085,-5.5554252 -13.966489,-5.3317346 -9.395635,0.2236907 -17.013719,5.3317346 -17.013719,5.3317346 0,0 8.633829,5.852803 16.505848,6.076494 7.87202,0.22369 14.47436,-6.076494 14.47436,-6.076494 z"
       id="path1-9-0" /></g></svg>
