<?xml version="1.0" encoding="UTF-8" standalone="no"?>
<!-- Created with Inkscape (http://www.inkscape.org/) -->

<svg
   width="36"
   height="36"
   viewBox="0 0 9.5249998 9.5249999"
   version="1.1"
   id="svg1"
   inkscape:version="1.3 (0e150ed6c4, 2023-07-21)"
   sodipodi:docname="question.svg"
   inkscape:export-filename="question.png"
   inkscape:export-xdpi="96"
   inkscape:export-ydpi="96"
   xmlns:inkscape="http://www.inkscape.org/namespaces/inkscape"
   xmlns:sodipodi="http://sodipodi.sourceforge.net/DTD/sodipodi-0.dtd"
   xmlns="http://www.w3.org/2000/svg"
   xmlns:svg="http://www.w3.org/2000/svg">
  <sodipodi:namedview
     id="namedview1"
     pagecolor="#ffffff"
     bordercolor="#666666"
     borderopacity="1.0"
     inkscape:showpageshadow="2"
     inkscape:pageopacity="0.0"
     inkscape:pagecheckerboard="0"
     inkscape:deskcolor="#d1d1d1"
     inkscape:document-units="mm"
     inkscape:zoom="4.7068235"
     inkscape:cx="76.484704"
     inkscape:cy="38.136123"
     inkscape:window-width="1366"
     inkscape:window-height="705"
     inkscape:window-x="-8"
     inkscape:window-y="-8"
     inkscape:window-maximized="1"
     inkscape:current-layer="layer1" />
  <defs
     id="defs1" />
  <g
     inkscape:label="Layer 1"
     inkscape:groupmode="layer"
     id="layer1">
    <g
       id="g1"
       style="stroke:#ffffff;stroke-width:1.05833;stroke-dasharray:none;stroke-opacity:1"
       transform="translate(0.01454843,-0.04274912)">
      <path
         style="-inkscape-font-specification:HGPｺﾞｼｯｸE;stroke:#ffffff;stroke-width:1.05833;stroke-dasharray:none;stroke-opacity:1"
         d="m 7.388852,2.7794448 c 0,0.7078844 -0.2415036,1.2715701 -0.7245109,1.6910571 C 6.3322736,4.7588992 6.0153001,5.0472967 5.7134207,5.335694 5.4417292,5.6240913 5.3058834,5.9387066 5.3058834,6.2795399 V 6.9087704 H 4.2191172 V 6.1615591 c 0,-0.3932692 0.090564,-0.7078844 0.2716916,-0.9438459 C 4.6719365,4.9555338 4.9436281,4.6802455 5.3058834,4.3918481 L 5.7134207,4.0379059 C 6.1058641,3.6970727 6.3020857,3.2906946 6.3020857,2.8187717 6.3020857,2.4779384 6.1511459,2.1764322 5.8492665,1.9142528 5.577575,1.6782914 5.2304135,1.5603107 4.8077822,1.5603107 c -0.3622554,0 -0.6943229,0.1310897 -0.9962023,0.393269 -0.3924433,0.3408333 -0.588665,0.9307369 -0.588665,1.769711 H 2.1361487 C 2.1965245,2.5959192 2.528592,1.7700541 3.1323511,1.2456954 3.6153582,0.82620829 4.2040232,0.61646479 4.8983461,0.61646479 c 0.7245108,0 1.3131758,0.19663452 1.765995,0.58990361 0.4830073,0.4194872 0.7245109,0.9438459 0.7245109,1.5730764 z"
         id="path3"
         aria-label="?"
         sodipodi:nodetypes="sscsccsccsssssccssss" />
      <circle
         style="fill:#000000;stroke:#ffffff;stroke-width:1.05833;stroke-linecap:round;stroke-dasharray:none;stroke-opacity:1;paint-order:fill markers stroke"
         id="path2"
         cx="4.7624998"
         cy="8.2351618"
         r="0.75887167" />
    </g>
    <g
       id="g2"
       transform="translate(-3.5e-7,-0.04274912)">
      <path
         style="-inkscape-font-specification:HGPｺﾞｼｯｸE;stroke-width:0.553264"
         d="m 7.388852,2.7794448 c 0,0.7078844 -0.2415036,1.2715701 -0.7245109,1.6910571 C 6.3322736,4.7588992 6.0153001,5.0472967 5.7134207,5.335694 5.4417292,5.6240913 5.3058834,5.9387066 5.3058834,6.2795399 V 6.9087704 H 4.2191172 V 6.1615591 c 0,-0.3932692 0.090564,-0.7078844 0.2716916,-0.9438459 C 4.6719365,4.9555338 4.9436281,4.6802455 5.3058834,4.3918481 L 5.7134207,4.0379059 C 6.1058641,3.6970727 6.3020857,3.2906946 6.3020857,2.8187717 6.3020857,2.4779384 6.1511459,2.1764322 5.8492665,1.9142528 5.577575,1.6782914 5.2304135,1.5603107 4.8077822,1.5603107 c -0.3622554,0 -0.6943229,0.1310897 -0.9962023,0.393269 -0.3924433,0.3408333 -0.588665,0.9307369 -0.588665,1.769711 H 2.1361487 C 2.1965245,2.5959192 2.528592,1.7700541 3.1323511,1.2456954 3.6153582,0.82620829 4.2040232,0.61646479 4.8983461,0.61646479 c 0.7245108,0 1.3131758,0.19663452 1.765995,0.58990361 0.4830073,0.4194872 0.7245109,0.9438459 0.7245109,1.5730764 z"
         id="path3-1"
         aria-label="?"
         sodipodi:nodetypes="sscsccsccsssssccssss" />
      <circle
         style="fill:#000000;stroke-width:0.529167;stroke-linecap:round;paint-order:fill markers stroke"
         id="path2-4"
         cx="4.7624998"
         cy="8.2351618"
         r="0.75887167" />
    </g>
  </g>
</svg>
