<?xml version="1.0" encoding="UTF-8" standalone="no"?>
<!-- Created with Inkscape (http://www.inkscape.org/) -->

<svg
   width="36"
   height="36"
   viewBox="0 0 9.5249998 9.5249999"
   version="1.1"
   id="svg1"
   inkscape:version="1.3 (0e150ed6c4, 2023-07-21)"
   sodipodi:docname="sound.svg"
   inkscape:export-filename="background.png"
   inkscape:export-xdpi="96"
   inkscape:export-ydpi="96"
   xmlns:inkscape="http://www.inkscape.org/namespaces/inkscape"
   xmlns:sodipodi="http://sodipodi.sourceforge.net/DTD/sodipodi-0.dtd"
   xmlns="http://www.w3.org/2000/svg"
   xmlns:svg="http://www.w3.org/2000/svg">
  <sodipodi:namedview
     id="namedview1"
     pagecolor="#ffffff"
     bordercolor="#666666"
     borderopacity="1.0"
     inkscape:showpageshadow="2"
     inkscape:pageopacity="0.0"
     inkscape:pagecheckerboard="0"
     inkscape:deskcolor="#d1d1d1"
     inkscape:document-units="mm"
     inkscape:zoom="6.6564536"
     inkscape:cx="66.251495"
     inkscape:cy="31.623446"
     inkscape:window-width="1366"
     inkscape:window-height="705"
     inkscape:window-x="-8"
     inkscape:window-y="-8"
     inkscape:window-maximized="1"
     inkscape:current-layer="layer1" />
  <defs
     id="defs1" />
  <g
     inkscape:label="Layer 1"
     inkscape:groupmode="layer"
     id="layer1">
    <circle
       style="fill:#ffb5e6;stroke-width:0.79375;stroke-linecap:round;paint-order:fill markers stroke"
       id="path1"
       cx="4.7624998"
       cy="4.7624998"
       r="4.7624998" />
    <path
       style="font-size:8.46667px;line-height:1.25;font-family:HGS創英角ｺﾞｼｯｸUB;-inkscape-font-specification:HGS創英角ｺﾞｼｯｸUB;text-align:center;letter-spacing:0px;word-spacing:0px;text-anchor:middle;stroke-width:0.264583"
       d="M 2.6967804,6.8750334 Q 3.4243848,6.3127936 4.284281,6.3458666 V 0.954979 h 0.6614586 q 0.1322917,0.6945315 0.8268232,1.2567713 l 0.6283857,0.5291669 q 0.959115,0.7606774 0.926042,2.0174487 -0.033073,1.2567714 -0.9921879,2.1497405 L 6.1363651,6.7758147 q 0.6283856,-0.8268233 0.6283856,-1.7197924 0,-0.8268232 -0.5622398,-1.2236984 L 5.3426147,3.1708653 Q 5.1441772,2.9724277 4.9457396,2.7409172 v 3.8364599 q 0,0.4960939 -0.066146,0.7276044 Q 4.7803749,7.6026379 4.5157915,7.9002943 4.0858434,8.3633153 3.3913119,8.5286799 2.6306345,8.6940446 2.3329781,8.1979506 1.936103,7.5034191 2.6967804,6.8750334 Z"
       id="text1"
       aria-label="♪" />
  </g>
</svg>
