<?xml version="1.0" encoding="UTF-8" standalone="no"?>
<!-- Created with Inkscape (http://www.inkscape.org/) -->

<svg
   width="36"
   height="36"
   viewBox="0 0 9.5249998 9.5249999"
   version="1.1"
   id="svg1"
   inkscape:version="1.3 (0e150ed6c4, 2023-07-21)"
   sodipodi:docname="sound.svg"
   inkscape:export-filename="background.png"
   inkscape:export-xdpi="96"
   inkscape:export-ydpi="96"
   xmlns:inkscape="http://www.inkscape.org/namespaces/inkscape"
   xmlns:sodipodi="http://sodipodi.sourceforge.net/DTD/sodipodi-0.dtd"
   xmlns="http://www.w3.org/2000/svg"
   xmlns:svg="http://www.w3.org/2000/svg">
  <sodipodi:namedview
     id="namedview1"
     pagecolor="#ffffff"
     bordercolor="#666666"
     borderopacity="1.0"
     inkscape:showpageshadow="2"
     inkscape:pageopacity="0.0"
     inkscape:pagecheckerboard="0"
     inkscape:deskcolor="#d1d1d1"
     inkscape:document-units="mm"
     inkscape:zoom="6.6564536"
     inkscape:cx="38.008227"
     inkscape:cy="29.219764"
     inkscape:window-width="1366"
     inkscape:window-height="705"
     inkscape:window-x="-8"
     inkscape:window-y="-8"
     inkscape:window-maximized="1"
     inkscape:current-layer="layer1" />
  <defs
     id="defs1" />
  <g
     inkscape:label="Layer 1"
     inkscape:groupmode="layer"
     id="layer1">
    <path
       style="font-size:8.46667px;line-height:1.25;font-family:HGS創英角ｺﾞｼｯｸUB;-inkscape-font-specification:HGS創英角ｺﾞｼｯｸUB;text-align:center;letter-spacing:0px;word-spacing:0px;text-anchor:middle;stroke:#ffffff;stroke-width:1.05833;stroke-dasharray:none;stroke-opacity:1"
       d="M 2.6954101,6.8747559 Q 3.4230145,6.3125161 4.2829107,6.3455891 V 0.95470151 H 4.9443693 Q 5.076661,1.649233 5.7711925,2.2114728 l 0.6283857,0.5291669 q 0.959115,0.7606774 0.926042,2.0174487 -0.033073,1.2567714 -0.9921879,2.1497405 L 6.1349948,6.7755372 q 0.6283856,-0.8268233 0.6283856,-1.7197924 0,-0.8268232 -0.5622398,-1.2236984 L 5.3412444,3.1705878 Q 5.1428069,2.9721502 4.9443693,2.7406397 v 3.8364599 q 0,0.4960939 -0.066146,0.7276044 Q 4.7790046,7.6023604 4.5144212,7.9000168 4.0844731,8.3630378 3.3899416,8.5284024 2.6292642,8.6937671 2.3316078,8.1976731 1.9347327,7.5031416 2.6954101,6.8747559 Z"
       id="text1"
       aria-label="♪" />
    <path
       style="font-size:8.46667px;line-height:1.25;font-family:HGS創英角ｺﾞｼｯｸUB;-inkscape-font-specification:HGS創英角ｺﾞｼｯｸUB;text-align:center;letter-spacing:0px;word-spacing:0px;text-anchor:middle;stroke-width:0.264583"
       d="M 2.6967807,6.8750332 Q 3.4243851,6.3127934 4.2842813,6.3458664 V 0.95497884 H 4.9457399 Q 5.0780316,1.6495103 5.7725631,2.2117501 L 6.4009488,2.740917 Q 7.3600637,3.5015944 7.3269907,4.7583657 7.2939177,6.0151371 6.3348029,6.9081062 L 6.1363654,6.7758145 Q 6.764751,5.9489912 6.764751,5.0560221 q 0,-0.8268232 -0.5622398,-1.2236984 L 5.342615,3.1708651 Q 5.1441775,2.9724275 4.9457399,2.740917 v 3.8364599 q 0,0.4960939 -0.066146,0.7276044 Q 4.7803752,7.6026377 4.5157918,7.9002941 4.0858437,8.3633148 3.3913122,8.5286798 2.6306348,8.6940448 2.3329784,8.1979508 1.9361033,7.5034189 2.6967807,6.8750332 Z"
       id="text1-6"
       aria-label="♪" />
  </g>
</svg>
